:version 1.10
:name ASF
:units
  mass 1
  length 1
  angle deg
:documentation
  ASF file generated by Kaydara
:root
  axis xyz
  order  tx ty tz rx ry rz
  position 0 0 0
  orientation 0 0 0
:bonedata
  begin
    id 1
    name lfemurDummy
    direction 0.61522 -0.761478 0.204097
    length 5.68318
    axis 0 -0 0 xyz
  end
  begin
    id 2
    name lfemur
    direction 0.34202 -0.939693 -5.84747e-008
    length 16.9147
    axis 0 -0 20 xyz
    dof rx ry rz
    limits( -inf , inf )
( -inf , inf )
( -inf , inf )

  end
  begin
    id 3
    name ltibia
    direction 0.34202 -0.939693 1.20839e-009
    length 18.0532
    axis 0 -0 20 xyz
    dof rz ry rx
    limits( -inf , inf )
( -inf , inf )
( -inf , inf )

  end
  begin
    id 4
    name lfoot
    direction 0.0841971 -0.23133 0.969225
    length 5.23822
    axis -90 7.62852e-016 20 xyz
    dof ry rx rz
    limits( -inf , inf )
( -inf , inf )
( -inf , inf )

  end
  begin
    id 5
    name ltoes
    direction 0 0 0
    length 0
    axis 0 0 0 xyz
    dof rz ry rx
    limits( -inf , inf )
( -inf , inf )
( -inf , inf )

  end
  begin
    id 6
    name rfemurDummy
    direction -0.625247 -0.75382 0.202044
    length 5.74091
    axis 0 -0 0 xyz
  end
  begin
    id 7
    name rfemur
    direction -0.34202 -0.939693 -1.47013e-008
    length 16.4922
    axis 0 -0 -20 xyz
    dof rx ry rz
    limits( -inf , inf )
( -inf , inf )
( -inf , inf )

  end
  begin
    id 8
    name rtibia
    direction -0.34202 -0.939693 -7.74345e-010
    length 18.2421
    axis 0 -0 -20 xyz
    dof rz ry rx
    limits( -inf , inf )
( -inf , inf )
( -inf , inf )

  end
  begin
    id 9
    name rfoot
    direction -0.124331 -0.341598 0.931586
    length 5.45787
    axis -90 -7.62852e-016 -20 xyz
    dof ry rx rz
    limits( -inf , inf )
( -inf , inf )
( -inf , inf )

  end
  begin
    id 10
    name rtoes
    direction 0 0 0
    length 0
    axis 0 0 0 xyz
    dof rz ry rx
    limits( -inf , inf )
( -inf , inf )
( -inf , inf )

  end
  begin
    id 11
    name lowerbackDummy
    direction 0 0 0
    length 0
    axis 0 -0 0 xyz
  end
  begin
    id 12
    name lowerback
    direction -0.0218484 0.994884 -0.0986304
    length 4.45607
    axis 0 -0 0 xyz
    dof rx ry rz
    limits( -inf , inf )
( -inf , inf )
( -inf , inf )

  end
  begin
    id 13
    name upperback
    direction -0.00973057 0.999717 -0.0217111
    length 4.47449
    axis 0 -0 0 xyz
    dof rx ry rz
    limits( -inf , inf )
( -inf , inf )
( -inf , inf )

  end
  begin
    id 14
    name thorax
    direction -0.000928171 0.999699 0.0245198
    length 4.50973
    axis 0 -0 0 xyz
    dof rx ry rz
    limits( -inf , inf )
( -inf , inf )
( -inf , inf )

  end
  begin
    id 15
    name rclavicle
    direction -0.9009 0.425937 -0.0834055
    length 7.28587
    axis 0 -0 0 xyz
    dof rx ry rz
    limits( -inf , inf )
( -inf , inf )
( -inf , inf )

  end
  begin
    id 16
    name rhumerus
    direction -1 -2.23604e-007 -1.42637e-007
    length 13.5704
    axis 180 30 90 xyz
    dof rx ry rz
    limits( -inf , inf )
( -inf , inf )
( -inf , inf )

  end
  begin
    id 17
    name rradius
    direction -1 5.68281e-008 -4.4952e-007
    length 8.06782
    axis 180 30 90 xyz
    dof rz ry rx
    limits( -inf , inf )
( -inf , inf )
( -inf , inf )

  end
  begin
    id 18
    name rwrist
    direction -1 1.51393e-007 1.38143e-007
    length 4.03391
    axis -90 -90 0 xyz
    dof rz rx ry
    limits( -inf , inf )
( -inf , inf )
( -inf , inf )

  end
  begin
    id 19
    name rthumb
    direction 0 0 0
    length 0
    axis 0 0 0 xyz
    dof ry rx rz
    limits( -inf , inf )
( -inf , inf )
( -inf , inf )

  end
  begin
    id 20
    name rhand
    direction -1 -3.34077e-007 -5.59631e-007
    length 1.29744
    axis -90 -90 0 xyz
    dof ry rx rz
    limits( -inf , inf )
( -inf , inf )
( -inf , inf )

  end
  begin
    id 21
    name rfingers
    direction 0 0 0
    length 0
    axis 0 0 0 xyz
    dof rz ry rx
    limits( -inf , inf )
( -inf , inf )
( -inf , inf )

  end
  begin
    id 22
    name lclavicle
    direction 0.940017 0.332249 -0.0773232
    length 8.29589
    axis 0 -0 0 xyz
    dof rx ry rz
    limits( -inf , inf )
( -inf , inf )
( -inf , inf )

  end
  begin
    id 23
    name lhumerus
    direction 1 7.41158e-008 -1.44768e-008
    length 12.0042
    axis 180 -30 -90 xyz
    dof rx ry rz
    limits( -inf , inf )
( -inf , inf )
( -inf , inf )

  end
  begin
    id 24
    name lradius
    direction 1 -1.32972e-007 3.10821e-007
    length 8.1902
    axis 180 -30 -90 xyz
    dof rz ry rx
    limits( -inf , inf )
( -inf , inf )
( -inf , inf )

  end
  begin
    id 25
    name lwrist
    direction 1 3.08957e-007 4.01394e-007
    length 4.09509
    axis -90 90 0 xyz
    dof rz rx ry
    limits( -inf , inf )
( -inf , inf )
( -inf , inf )

  end
  begin
    id 26
    name lthumb
    direction 0 0 0
    length 0
    axis 0 0 0 xyz
    dof ry rx rz
    limits( -inf , inf )
( -inf , inf )
( -inf , inf )

  end
  begin
    id 27
    name lhand
    direction 1 -1.64125e-007 -6.99514e-007
    length 1.37229
    axis -90 90 0 xyz
    dof ry rx rz
    limits( -inf , inf )
( -inf , inf )
( -inf , inf )

  end
  begin
    id 28
    name lfingers
    direction 0 0 0
    length 0
    axis 0 0 0 xyz
    dof rz ry rx
    limits( -inf , inf )
( -inf , inf )
( -inf , inf )

  end
  begin
    id 29
    name lowerneck
    direction -0.030798 0.998024 0.0547665
    length 3.93918
    axis 0 -0 0 xyz
    dof rx ry rz
    limits( -inf , inf )
( -inf , inf )
( -inf , inf )

  end
  begin
    id 30
    name upperneck
    direction 0.0531588 0.996611 -0.0627736
    length 3.95491
    axis 0 -0 0 xyz
    dof rx ry rz
    limits( -inf , inf )
( -inf , inf )
( -inf , inf )

  end
  begin
    id 31
    name head
    direction 0 0 0
    length 0
    axis 0 0 0 xyz
    dof rx ry rz
    limits( -inf , inf )
( -inf , inf )
( -inf , inf )

  end
:hierarchy
  begin
    root lfemurDummy rfemurDummy lowerbackDummy
    lfemurDummy lfemur
    lfemur ltibia
    ltibia lfoot
    lfoot ltoes
    rfemurDummy rfemur
    rfemur rtibia
    rtibia rfoot
    rfoot rtoes
    lowerbackDummy lowerback
    lowerback upperback
    upperback thorax
    thorax rclavicle lclavicle lowerneck
    rclavicle rhumerus
    rhumerus rradius
    rradius rwrist
    rwrist rthumb rhand
    rhand rfingers
    lclavicle lhumerus
    lhumerus lradius
    lradius lwrist
    lwrist lthumb lhand
    lhand lfingers
    lowerneck upperneck
    upperneck head
  end

:SAMPLES-PER-SECOND 30
:FULLY-SPECIFIED
:DEGREES
1
root  6.252199834 37.34199944 -9.516489224 -3.218002319 -39.68099976 5.541000366
lowerback  15.65849972 -0.5847340226 -3.48567009
upperback  5.728169918 -1.373469949 0.801132977
thorax  -2.588840008 -0.7702329755 3.055550098
lowerneck  0.8343200088 0.2433529943 -6.337959766
upperneck  4.012800217 0.140824005 5.753449917
head  1.120519996 0.03913979977 2.958489895
lclavicle  0 -9.442270133e-015 7.951389973e-016
lhumerus  -1.954730034 -22.15979958 93.37460327
lradius  2.453147436e-031 -2.539864503e-031 134.0050049
lwrist  -1.412450015e-030 -3.531125038e-031 -1.950180054
lhand  -1.496451383e-031 -27.76390076 20.11240005
lfingers  90 7.125020027 -90
lthumb  89.89689403 5.08795885 91.16245106
rclavicle  0 -9.442270133e-015 7.951389973e-016
rhumerus  14.83160019 15.07820034 -82.80180359
rradius  -2.221107459e-031 2.7450912e-031 128.977005
rwrist  7.062250077e-031 -0 -9.970709801
rhand  -7.920061211e-032 -33.2840004 9.303460121
rfingers  -90 -7.125020027 -90
rthumb  -92.93752616 -24.25625642 -97.11982154
rfemur  -21.72739983 16.41270065 -1.564450026
rtibia  -0 0 51.94309998
rfoot  -5.114028131e-032 -30.33379936 -5.188509941
rtoes  5.373923086 19.29304026 -105.8922705
lfemur  -22.33950043 16.15819931 -4.767469883
ltibia  -0 0 77.79969788
lfoot  -0 -4.75579977 -11.9005003
ltoes  -4.250644065 -19.5611806 -102.515957
2
root  6.252199834 37.34199944 -9.516489224 -3.218002319 -39.68099976 5.541000366
lowerback  15.65849972 -0.5847340226 -3.48567009
upperback  5.728169918 -1.373469949 0.801132977
thorax  -2.588840008 -0.7702329755 3.055550098
lowerneck  0.8343200088 0.2433529943 -6.337959766
upperneck  4.012800217 0.140824005 5.753449917
head  1.120519996 0.03913979977 2.958489895
lclavicle  0 -9.442270133e-015 7.951389973e-016
lhumerus  -1.954730034 -22.15979958 93.37460327
lradius  2.453147436e-031 -2.539864503e-031 134.0050049
lwrist  -1.412450015e-030 -3.531125038e-031 -1.950180054
lhand  -1.496451383e-031 -27.76390076 20.11240005
lfingers  90 7.125020027 -90
lthumb  89.89689403 5.08795885 91.16245106
rclavicle  0 -9.442270133e-015 7.951389973e-016
rhumerus  14.83160019 15.07820034 -82.80180359
rradius  -2.221107459e-031 2.7450912e-031 128.977005
rwrist  7.062250077e-031 -0 -9.970709801
rhand  -7.920061211e-032 -33.2840004 9.303460121
rfingers  -90 -7.125020027 -90
rthumb  -92.93752616 -24.25625642 -97.11982154
rfemur  -21.72739983 16.41270065 -1.564450026
rtibia  -0 0 51.94309998
rfoot  -5.114028131e-032 -30.33379936 -5.188509941
rtoes  5.373923086 19.29304026 -105.8922705
lfemur  -22.33950043 16.15819931 -4.767469883
ltibia  -0 0 77.79969788
lfoot  -0 -4.75579977 -11.9005003
ltoes  -4.250644065 -19.5611806 -102.515957
3
root  6.55984428 37.54088935 -9.452666636 -3.865997314 -41.42500305 6.027999878
lowerback  15.52299976 -0.5881389976 -3.496550083
upperback  5.686369896 -1.385900021 0.6289610267
thorax  -2.564739943 -0.7764019966 2.879810095
lowerneck  1.038920045 0.5324940085 -5.894889832
upperneck  4.990890026 0.4943679869 5.296430111
head  1.373080015 0.2073960006 2.729049921
lclavicle  0 -9.442270133e-015 7.951389973e-016
lhumerus  -3.099139929 -21.61790085 94.31369781
lradius  2.425968202e-031 -2.565837547e-031 133.3950043
lwrist  0 -3.531125038e-031 -1.251559973
lhand  -1.496451383e-031 -27.76390076 20.11240005
lfingers  90 7.125020027 -90
lthumb  89.89689403 5.08795885 91.16245106
rclavicle  0 -9.442270133e-015 7.951389973e-016
rhumerus  13.4307003 15.48719978 -82.86799622
rradius  -2.187549754e-031 2.771907306e-031 128.2799988
rwrist  7.062250077e-031 -5.296687558e-031 -9.705189705
rhand  -7.920061211e-032 -33.2840004 9.303460121
rfingers  -90 -7.125020027 -90
rthumb  -92.93752616 -24.25625642 -97.11982154
rfemur  -21.69239998 17.3572998 -2.4535501
rtibia  -0 0 50.28390121
rfoot  -5.051758691e-032 -29.10420036 -4.588069916
rtoes  5.373923086 19.29304026 -105.8922705
lfemur  -20.74510002 15.26290035 -5.201210022
ltibia  -0 0 77.38829803
lfoot  -0 -4.352650166 -11.0333004
ltoes  -4.250644065 -19.5611806 -102.515957
4
root  6.884911304 37.73444469 -9.37246638 -4.005996704 -43.38600159 5.893005371
lowerback  15.27289963 -0.5726420283 -3.120549917
upperback  5.69851017 -1.305050015 0.7017670274
thorax  -2.433330059 -0.7386440039 2.723599911
lowerneck  1.027439952 0.8388379812 -5.615170002
upperneck  5.918769836 0.8912159801 4.812699795
head  1.64952004 0.3958680034 2.527240038
lclavicle  0 -9.442270133e-015 7.951389973e-016
lhumerus  -3.829679966 -20.83790016 95.19190216
lradius  2.395481844e-031 -2.594322796e-031 132.7180023
lwrist  -1.412450015e-030 -0 -0.1649979949
lhand  -1.496451383e-031 -27.76390076 20.11240005
lfingers  90 7.125020027 -90
lthumb  89.89689403 5.08795885 91.16245106
rclavicle  0 -9.442270133e-015 7.951389973e-016
rhumerus  12.34599972 16.0678997 -82.61049652
rradius  -2.151030347e-031 2.800341494e-031 127.5289993
rwrist  1.412450015e-030 -1.765562519e-031 -9.373780251
rhand  -7.920061211e-032 -33.2840004 9.303460121
rfingers  -90 -7.125020027 -90
rthumb  -92.93752616 -24.25625642 -97.11982154
rfemur  -21.82620049 18.46240044 -2.815109968
rtibia  -0 0 48.53120041
rfoot  -9.969499326e-032 -27.68910027 -4.46626997
rtoes  5.373923086 19.29304026 -105.8922705
lfemur  -19.17140007 14.47910023 -5.215000153
ltibia  -0 0 76.86239624
lfoot  -0 -3.645519972 -10.53450012
ltoes  -4.250644065 -19.5611806 -102.515957
5
root  7.22504413 37.92155408 -9.282666304 -4.016998291 -45.54100037 5.729003906
lowerback  15.02840042 -0.4035950005 -2.772670031
upperback  5.581570148 -1.026229978 0.7814570069
thorax  -2.451499939 -0.5966579914 2.560349941
lowerneck  1.52681005 1.122099996 -5.257450104
upperneck  6.41050005 1.235110044 4.548079967
head  1.700950027 0.5589939952 2.375439882
lclavicle  0 -9.442270133e-015 7.951389973e-016
lhumerus  -4.776810169 -20.43519974 96.15219879
lradius  2.37348097e-031 -2.614465935e-031 132.2339935
lwrist  -1.412450015e-030 -3.531125038e-031 1.043409944
lhand  -1.496451383e-031 -27.76390076 20.11240005
lfingers  90 7.125020027 -90
lthumb  89.89689403 5.08795885 91.16245106
rclavicle  0 -9.442270133e-015 7.951389973e-016
rhumerus  11.11979961 16.34090042 -82.20929718
rradius  -2.121834093e-031 2.822527966e-031 126.9339981
rwrist  7.062250077e-031 -0 -8.621210098
rhand  -7.920061211e-032 -33.2840004 9.303460121
rfingers  -90 -7.125020027 -90
rthumb  -92.93752616 -24.25625642 -97.11982154
rfemur  -22.2133007 19.5454998 -3.183259964
rtibia  -0 0 46.75099945
rfoot  -4.918582633e-032 -26.18239975 -4.177209854
rtoes  5.373923086 19.29304026 -105.8922705
lfemur  -17.56889915 13.75590038 -5.368140221
ltibia  -0 0 76.16329956
lfoot  -0 -2.896460056 -9.869890213
ltoes  -4.250644065 -19.5611806 -102.515957
6
root  7.56717742 38.11577925 -9.175044533 -4.093002319 -47.93400574 5.645004272
lowerback  14.80080032 -0.2475659996 -2.600199938
upperback  5.452600002 -0.7877550125 0.9517340064
thorax  -2.481159925 -0.4770250022 2.599539995
lowerneck  1.992239952 1.518039942 -5.111569881
upperneck  6.813769817 1.743149996 4.156859875
head  1.724079967 0.7979279757 2.220370054
lclavicle  0 -9.442270133e-015 7.951389973e-016
lhumerus  -5.736959934 -19.74650002 97.04949951
lradius  2.357879385e-031 -2.628545005e-031 131.8930054
lwrist  -7.062250077e-031 -0 1.91328001
lhand  -1.496451383e-031 -27.76390076 20.11240005
lfingers  90 7.125020027 -90
lthumb  89.89689403 5.08795885 91.16245106
rclavicle  0 -9.442270133e-015 7.951389973e-016
rhumerus  10.05980015 16.79240036 -81.63559723
rradius  -2.102770718e-031 2.836758598e-031 126.5479965
rwrist  1.412450015e-030 -0 -7.861760139
rhand  -7.920061211e-032 -33.2840004 9.303460121
rfingers  -90 -7.125020027 -90
rthumb  -92.93752616 -24.25625642 -97.11982154
rfemur  -22.73469925 20.57970047 -3.613300085
rtibia  -0 0 44.96630096
rfoot  -4.856292602e-032 -24.64559937 -3.604180098
rtoes  5.373923086 19.29304026 -105.8922705
lfemur  -15.78590012 13.07719994 -5.70637989
ltibia  -0 0 75.23509979
lfoot  -0 -2.065500021 -8.972880363
ltoes  -4.250644065 -19.5611806 -102.515957
